<?xml version="1.0" standalone="no"?>
<!DOCTYPE svg PUBLIC "-//W3C//DTD SVG 20010904//EN"
 "http://www.w3.org/TR/2001/REC-SVG-20010904/DTD/svg10.dtd">
<svg version="1.0" xmlns="http://www.w3.org/2000/svg"
 width="260.000000pt" height="260.000000pt" viewBox="0 0 260.000000 260.000000"
 preserveAspectRatio="xMidYMid meet">
<metadata>
Created by potrace 1.11, written by Peter Selinger 2001-2013
</metadata>
<g transform="translate(0.000000,260.000000) scale(0.100000,-0.100000)"
fill="#000000" stroke="none">
<path d="M1929 2574 c-161 -30 -351 -142 -614 -363 -258 -217 -524 -516 -665
-746 -103 -167 -170 -348 -171 -462 -1 -29 7 -77 16 -107 53 -169 216 -214
418 -115 31 15 57 25 57 22 0 -3 -21 -35 -47 -72 -25 -36 -65 -93 -88 -126
-75 -106 -182 -291 -215 -371 -43 -105 -43 -158 1 -198 29 -26 37 -28 82 -23
61 8 89 35 136 132 124 253 384 643 600 899 87 103 111 144 111 186 0 37 -23
85 -45 94 -52 20 -88 4 -212 -95 -43 -34 -128 -95 -190 -136 -236 -155 -348
-180 -380 -86 -32 90 113 355 350 643 66 79 344 364 412 420 216 181 398 298
488 315 51 10 56 -10 19 -87 -60 -127 -218 -298 -407 -443 -49 -38 -102 -80
-117 -94 -53 -47 -45 -137 13 -161 87 -36 226 45 430 250 176 178 275 351 286
502 5 59 2 74 -21 122 -45 92 -122 123 -247 100z"/>
</g>
</svg>
